<svg xmlns="http://www.w3.org/2000/svg" xmlns:xlink="http://www.w3.org/1999/xlink" width="203" height="248" viewBox="0 0 203 248">
  <defs>
    <linearGradient id="linear-gradient" x1="0.5" x2="0.513" y2="1" gradientUnits="objectBoundingBox">
      <stop offset="0" stop-color="#7aea8e"/>
      <stop offset="0.589" stop-color="#bfecc6"/>
      <stop offset="0.866" stop-color="#eaf8ec"/>
      <stop offset="1" stop-color="#fafafb"/>
    </linearGradient>
  </defs>
  <g id="illustation_Light_mode" data-name="illustation Light mode" transform="translate(1137.589 -920.741)">
    <g id="Group_5257" data-name="Group 5257" transform="translate(-1137.589 1008.571)">
      <g id="Group_5256" data-name="Group 5256" transform="translate(0 0)">
        <path id="Path_14383" data-name="Path 14383" d="M413,1878.178l-6.339-57.468-3.988-.149-1.339-.05h-.025l-5.32-.2-.414-4.831a50.012,50.012,0,0,0-4.118-6.408,45.644,45.644,0,0,0-3.693-4.292c-7.524-7.716-18.267-13.218-33.927-16.121a26.707,26.707,0,0,0-3.845-.675c-.969-.1-1.947-.261-2.943-.379l-.223-.028q-1.372-.173-2.791-.324-1.649-.174-3.36-.318l-.316-.027-.426-.034q-1.289-.1-2.613-.186-.742-.047-1.495-.089l-1.107-.058q-4.63-.229-9.688-.25a.5.5,0,0,0-.1.011q-1.844-.016-3.742-.01-4.139.018-7.987.175-1.279.051-2.526.119l-.28.015q-1.15.063-2.273.14l-.525.036q-2.786.2-5.412.478-.731.077-1.45.16l-.432.051c-.3.036-.608.073-.909.111q-5.238.66-9.845,1.649c-20.353,4.351-31.917,13.4-38.886,26.222l-23.748,51.279a19.039,19.039,0,0,0,10.034,24.4v.083a19.047,19.047,0,0,0,24.6-8.845c5.078-9.947,10.668-18.182,10.728-17.765l-3.968,78.062-.165,3.25-.038.546H382.3l-.038-.548-.2-3.248-3.9-62.967h0l-.139-2.246q.084.921.171,1.82h0c1.912,19.882,4.829,31.494,19.36,30.526C412.79,1908.774,413.131,1895.445,413,1878.178ZM377.3,1865.751v-.068c0-.032,0,0,0,.068Z" transform="translate(-225.591 -1786.29)" fill="url(#linear-gradient)"/>
      </g>
    </g>
    <g id="Group_5264" data-name="Group 5264" transform="translate(-1026.541 1022.355)">
      <g id="Group_5263" data-name="Group 5263">
        <g id="Group_5262" data-name="Group 5262">
          <g id="Group_5261" data-name="Group 5261">
            <g id="Group_5260" data-name="Group 5260">
              <g id="Group_5259" data-name="Group 5259">
                <g id="Group_5258" data-name="Group 5258">
                  <path id="Path_14384" data-name="Path 14384" d="M1554.06,1945.56" transform="translate(-1554.06 -1945.56)" fill="#d8a87d"/>
                </g>
              </g>
            </g>
          </g>
        </g>
      </g>
    </g>
    <g id="Group_5269" data-name="Group 5269" transform="translate(-1122.595 1028.661)">
      <g id="Group_5268" data-name="Group 5268" transform="translate(0 0)">
        <g id="Group_5267" data-name="Group 5267">
          <g id="Group_5266" data-name="Group 5266">
            <g id="Group_5265" data-name="Group 5265">
              <path id="Path_14385" data-name="Path 14385" d="M404.846,2064.863l.57.651,39.052-42.877-.57-.651Z" transform="translate(-404.846 -2021.986)" fill="#fff"/>
            </g>
          </g>
        </g>
      </g>
    </g>
    <g id="Group_5274" data-name="Group 5274" transform="translate(-1090.625 1038.058)">
      <g id="Group_5273" data-name="Group 5273" transform="translate(0 0)">
        <g id="Group_5272" data-name="Group 5272">
          <g id="Group_5271" data-name="Group 5271">
            <g id="Group_5270" data-name="Group 5270">
              <path id="Path_14386" data-name="Path 14386" d="M788.255,2184.928l-.764-.359,26.411-49.65.764.359Z" transform="translate(-787.491 -2134.919)" fill="#fff"/>
            </g>
          </g>
        </g>
      </g>
    </g>
    <g id="Group_5278" data-name="Group 5278" transform="translate(-1052.53 991.127)">
      <g id="Group_5277" data-name="Group 5277" transform="translate(0 0)">
        <g id="Group_5276" data-name="Group 5276">
          <g id="Group_5275" data-name="Group 5275">
            <path id="Path_14387" data-name="Path 14387" d="M1269.948,1593.538h0v-22.122H1243.28v21.778a.942.942,0,0,0-.024.169C1243.26,1611.146,1270.3,1609.733,1269.948,1593.538Z" transform="translate(-1243.256 -1571.416)" fill="#d8a77d"/>
          </g>
        </g>
      </g>
    </g>
    <path id="Path_14388" data-name="Path 14388" d="M1209.476,1749.92l12.794,19.618-7.861,8.467-7.68-23.169v-4.917Z" transform="translate(-2262.308 -743.905)" fill="#fff"/>
    <path id="Path_14389" data-name="Path 14389" d="M1425.708,1750.15l-12.795,19.618,7.861,8.467,7.68-23.25v-4.835Z" transform="translate(-2451.255 -744.116)" fill="#fff"/>
    <g id="Group_5287" data-name="Group 5287" transform="translate(-1064.75 935.854)">
      <g id="Group_5286" data-name="Group 5286" transform="translate(0)">
        <g id="Group_5285" data-name="Group 5285">
          <g id="Group_5284" data-name="Group 5284">
            <g id="Group_5283" data-name="Group 5283">
              <g id="Group_5282" data-name="Group 5282">
                <g id="Group_5281" data-name="Group 5281">
                  <g id="Group_5280" data-name="Group 5280">
                    <g id="Group_5279" data-name="Group 5279">
                      <path id="Path_14390" data-name="Path 14390" d="M1149.964,940.307c0,18.055-11.817,39.972-26.4,39.972s-26.4-21.917-26.4-39.972,11.817-32.691,26.4-32.691S1149.964,922.253,1149.964,940.307Z" transform="translate(-1097.172 -907.616)" fill="#d8a77d"/>
                    </g>
                  </g>
                </g>
              </g>
            </g>
          </g>
        </g>
      </g>
    </g>
    <g id="Group_5296" data-name="Group 5296" transform="translate(-1052.231 1001.356)">
      <g id="Group_5295" data-name="Group 5295" transform="translate(0 0)">
        <g id="Group_5294" data-name="Group 5294">
          <g id="Group_5293" data-name="Group 5293">
            <g id="Group_5292" data-name="Group 5292">
              <g id="Group_5291" data-name="Group 5291">
                <g id="Group_5290" data-name="Group 5290">
                  <g id="Group_5289" data-name="Group 5289">
                    <g id="Group_5288" data-name="Group 5288">
                      <path id="Path_14391" data-name="Path 14391" d="M1260.67,1700.946a21.393,21.393,0,0,1-9.913-3.608,24.2,24.2,0,0,1-3.941-3.172l.459-.436a24.164,24.164,0,0,0,3.844,3.089,20.759,20.759,0,0,0,9.6,3.5Z" transform="translate(-1246.816 -1693.73)" fill="#a1542e"/>
                    </g>
                  </g>
                </g>
              </g>
            </g>
          </g>
        </g>
      </g>
    </g>
    <g id="Group_5313" data-name="Group 5313" transform="translate(-1070.696 964.846)">
      <g id="Group_5312" data-name="Group 5312" transform="translate(0 0)">
        <g id="Group_5311" data-name="Group 5311" transform="translate(0)">
          <g id="Group_5310" data-name="Group 5310">
            <g id="Group_5309" data-name="Group 5309">
              <g id="Group_5308" data-name="Group 5308">
                <g id="Group_5307" data-name="Group 5307">
                  <g id="Group_5306" data-name="Group 5306">
                    <g id="Group_5305" data-name="Group 5305">
                      <g id="Group_5304" data-name="Group 5304">
                        <g id="Group_5303" data-name="Group 5303">
                          <g id="Group_5302" data-name="Group 5302">
                            <g id="Group_5301" data-name="Group 5301">
                              <g id="Group_5300" data-name="Group 5300">
                                <g id="Group_5299" data-name="Group 5299">
                                  <g id="Group_5298" data-name="Group 5298">
                                    <g id="Group_5297" data-name="Group 5297">
                                      <ellipse id="Ellipse_68" data-name="Ellipse 68" cx="5.519" cy="8.8" rx="5.519" ry="8.8" transform="translate(0 3.44) rotate(-18.157)" fill="#d8a77d"/>
                                    </g>
                                  </g>
                                </g>
                              </g>
                            </g>
                          </g>
                        </g>
                      </g>
                    </g>
                  </g>
                </g>
              </g>
            </g>
          </g>
        </g>
      </g>
    </g>
    <g id="Group_5330" data-name="Group 5330" transform="translate(-1021.151 964.742)">
      <g id="Group_5329" data-name="Group 5329" transform="translate(0 0)">
        <g id="Group_5328" data-name="Group 5328" transform="translate(0)">
          <g id="Group_5327" data-name="Group 5327">
            <g id="Group_5326" data-name="Group 5326">
              <g id="Group_5325" data-name="Group 5325">
                <g id="Group_5324" data-name="Group 5324">
                  <g id="Group_5323" data-name="Group 5323">
                    <g id="Group_5322" data-name="Group 5322">
                      <g id="Group_5321" data-name="Group 5321">
                        <g id="Group_5320" data-name="Group 5320">
                          <g id="Group_5319" data-name="Group 5319">
                            <g id="Group_5318" data-name="Group 5318">
                              <g id="Group_5317" data-name="Group 5317">
                                <g id="Group_5316" data-name="Group 5316">
                                  <g id="Group_5315" data-name="Group 5315">
                                    <g id="Group_5314" data-name="Group 5314">
                                      <ellipse id="Ellipse_69" data-name="Ellipse 69" cx="8.8" cy="5.519" rx="8.8" ry="5.519" transform="translate(0 16.72) rotate(-71.819)" fill="#d8a77d"/>
                                    </g>
                                  </g>
                                </g>
                              </g>
                            </g>
                          </g>
                        </g>
                      </g>
                    </g>
                  </g>
                </g>
              </g>
            </g>
          </g>
        </g>
      </g>
    </g>
    <g id="Group_5339" data-name="Group 5339" transform="translate(-1036.752 971.237)">
      <g id="Group_5338" data-name="Group 5338" transform="translate(0 0)">
        <g id="Group_5337" data-name="Group 5337">
          <g id="Group_5336" data-name="Group 5336">
            <g id="Group_5335" data-name="Group 5335">
              <g id="Group_5334" data-name="Group 5334">
                <g id="Group_5333" data-name="Group 5333">
                  <g id="Group_5332" data-name="Group 5332">
                    <g id="Group_5331" data-name="Group 5331">
                      <path id="Path_14392" data-name="Path 14392" d="M1434.275,1350.659c-1.243,0-2.348-.086-2.417-.092l.051-.884a27.4,27.4,0,0,0,4.16.007c.1-.248.3-1.614-1.616-8.784-1.081-4.046-2.305-7.945-2.316-7.984l.7-.308c.012.039,1.225,3.908,2.305,7.939,2.233,8.339,1.733,9.282,1.545,9.637a.657.657,0,0,1-.5.376A16.982,16.982,0,0,1,1434.275,1350.659Z" transform="translate(-1431.858 -1332.614)" fill="#160707"/>
                    </g>
                  </g>
                </g>
              </g>
            </g>
          </g>
        </g>
      </g>
    </g>
    <g id="Group_5347" data-name="Group 5347" transform="translate(-1051.777 972.777)">
      <g id="Group_5346" data-name="Group 5346" transform="translate(0 0)">
        <g id="Group_5345" data-name="Group 5345">
          <g id="Group_5344" data-name="Group 5344">
            <g id="Group_5343" data-name="Group 5343">
              <g id="Group_5342" data-name="Group 5342">
                <g id="Group_5341" data-name="Group 5341">
                  <g id="Group_5340" data-name="Group 5340">
                    <ellipse id="Ellipse_70" data-name="Ellipse 70" cx="2.322" cy="3.527" rx="2.322" ry="3.527" fill="#160707"/>
                  </g>
                </g>
              </g>
            </g>
          </g>
        </g>
      </g>
    </g>
    <g id="Group_5355" data-name="Group 5355" transform="translate(-1026.376 972.981)">
      <g id="Group_5354" data-name="Group 5354" transform="translate(0 0)">
        <g id="Group_5353" data-name="Group 5353">
          <g id="Group_5352" data-name="Group 5352">
            <g id="Group_5351" data-name="Group 5351">
              <g id="Group_5350" data-name="Group 5350">
                <g id="Group_5349" data-name="Group 5349">
                  <g id="Group_5348" data-name="Group 5348">
                    <ellipse id="Ellipse_71" data-name="Ellipse 71" cx="2.322" cy="3.527" rx="2.322" ry="3.527" fill="#160707"/>
                  </g>
                </g>
              </g>
            </g>
          </g>
        </g>
      </g>
    </g>
    <g id="Group_5364" data-name="Group 5364" transform="translate(-1043.666 992.032)">
      <g id="Group_5363" data-name="Group 5363" transform="translate(0 0)">
        <g id="Group_5362" data-name="Group 5362">
          <g id="Group_5361" data-name="Group 5361">
            <g id="Group_5360" data-name="Group 5360">
              <g id="Group_5359" data-name="Group 5359">
                <g id="Group_5358" data-name="Group 5358">
                  <g id="Group_5357" data-name="Group 5357">
                    <g id="Group_5356" data-name="Group 5356">
                      <path id="Path_14393" data-name="Path 14393" d="M1353.149,1586.46a5.562,5.562,0,0,1-1.1-.5,6.388,6.388,0,0,1-2.8-3.87l.573-.121-.287.061.506-.043a4.895,4.895,0,0,0,2.335,3.18,6.941,6.941,0,0,0,5.681.33l.152.781a8.374,8.374,0,0,1-5.059.185Z" transform="translate(-1349.246 -1581.967)" fill="#160707"/>
                    </g>
                  </g>
                </g>
              </g>
            </g>
          </g>
        </g>
      </g>
    </g>
    <g id="Group_5373" data-name="Group 5373" transform="translate(-1027.978 968.618)">
      <g id="Group_5372" data-name="Group 5372" transform="translate(0 0)">
        <g id="Group_5371" data-name="Group 5371">
          <g id="Group_5370" data-name="Group 5370">
            <g id="Group_5369" data-name="Group 5369">
              <g id="Group_5368" data-name="Group 5368">
                <g id="Group_5367" data-name="Group 5367">
                  <g id="Group_5366" data-name="Group 5366">
                    <g id="Group_5365" data-name="Group 5365">
                      <path id="Path_14394" data-name="Path 14394" d="M1547.443,1303.555c-.08-.029-5.684-1.533-10.275-.713l-.278-1.07a17.453,17.453,0,0,1,6.156-.361,18.5,18.5,0,0,1,4.561.942Z" transform="translate(-1536.889 -1301.288)" fill="#160707"/>
                    </g>
                  </g>
                </g>
              </g>
            </g>
          </g>
        </g>
      </g>
    </g>
    <g id="Group_5388" data-name="Group 5388" transform="translate(-1066.428 968.946)">
      <g id="Group_5387" data-name="Group 5387" transform="translate(0 0)">
        <g id="Group_5386" data-name="Group 5386">
          <g id="Group_5385" data-name="Group 5385">
            <g id="Group_5384" data-name="Group 5384">
              <g id="Group_5383" data-name="Group 5383">
                <g id="Group_5382" data-name="Group 5382">
                  <g id="Group_5381" data-name="Group 5381">
                    <g id="Group_5380" data-name="Group 5380">
                      <g id="Group_5379" data-name="Group 5379">
                        <g id="Group_5378" data-name="Group 5378">
                          <g id="Group_5377" data-name="Group 5377">
                            <g id="Group_5376" data-name="Group 5376">
                              <g id="Group_5375" data-name="Group 5375">
                                <g id="Group_5374" data-name="Group 5374">
                                  <path id="Path_14395" data-name="Path 14395" d="M1080.508,1315.4c-.141-.1-3.451-2.367-3.6-5.512-.079-1.712.794-3.329,2.594-4.81l.458.558c-1.614,1.324-2.4,2.741-2.332,4.209.126,2.784,3.247,4.932,3.279,4.953Z" transform="translate(-1076.907 -1305.08)" fill="#a1542e"/>
                                </g>
                              </g>
                            </g>
                          </g>
                        </g>
                      </g>
                    </g>
                  </g>
                </g>
              </g>
            </g>
          </g>
        </g>
      </g>
    </g>
    <g id="Group_5390" data-name="Group 5390" transform="translate(-1065.55 920.741)">
      <g id="Group_5389" data-name="Group 5389" transform="translate(0 0)">
        <path id="Path_14396" data-name="Path 14396" d="M1141.526,755.963c.1-3.96-3.524-14.036-3.524-14.073a19.587,19.587,0,0,1-.586,3.263c.424-2.072-1.8-7.272-2.1-8.961a1.708,1.708,0,0,1-.034-.35,4.138,4.138,0,0,1-1.122,1.984,65.215,65.215,0,0,0-.8-10.833c-.028-.444-5.934,4.933-12.226,5.889a7.2,7.2,0,0,0,2.2-3.44,2.077,2.077,0,0,1,.11-.341c-.1.178-1.036,1.617-5.036,2.868-2.906.912-5.331,1.71-7.344,2.4a47.794,47.794,0,0,0-6.448,1.635,24.617,24.617,0,0,0-15.734,16.224,30.035,30.035,0,0,0-.964,3.726c-.8,4.076.187,14.4.382,16.324v.012c.021.194.033.3.033.3l.034.082h0l2.786,6.552a43.034,43.034,0,0,1,.5-5.445c.947-6.234,3.689-15.677,11.633-16.313,4.145-.33,6.184,3.014,10.615,2.626s6.806-2.823,10.687-2.752c8.919.164,12.39,10.523,13.584,15.8h0c.411,1.8.55,3.015.55,3.015l2.362-3.524h0l.025-.038h0S1142.408,760.478,1141.526,755.963Z" transform="translate(-1087.611 -726.966)" fill="#4b4343"/>
      </g>
    </g>
    <g id="Group_5405" data-name="Group 5405" transform="translate(-1013.568 970.352)">
      <g id="Group_5404" data-name="Group 5404" transform="translate(0 0)">
        <g id="Group_5403" data-name="Group 5403">
          <g id="Group_5402" data-name="Group 5402">
            <g id="Group_5401" data-name="Group 5401">
              <g id="Group_5400" data-name="Group 5400">
                <g id="Group_5399" data-name="Group 5399">
                  <g id="Group_5398" data-name="Group 5398">
                    <g id="Group_5397" data-name="Group 5397">
                      <g id="Group_5396" data-name="Group 5396">
                        <g id="Group_5395" data-name="Group 5395">
                          <g id="Group_5394" data-name="Group 5394">
                            <g id="Group_5393" data-name="Group 5393">
                              <g id="Group_5392" data-name="Group 5392">
                                <g id="Group_5391" data-name="Group 5391">
                                  <path id="Path_14397" data-name="Path 14397" d="M1709.7,1332.332c.14-.1,3.45-2.367,3.6-5.512.079-1.712-.793-3.329-2.594-4.81l-.458.558c1.615,1.324,2.4,2.741,2.332,4.209-.126,2.784-3.248,4.932-3.279,4.953Z" transform="translate(-1709.297 -1322.01)" fill="#a1542e"/>
                                </g>
                              </g>
                            </g>
                          </g>
                        </g>
                      </g>
                    </g>
                  </g>
                </g>
              </g>
            </g>
          </g>
        </g>
      </g>
    </g>
    <g id="Group_5414" data-name="Group 5414" transform="translate(-1056.218 968.674)">
      <g id="Group_5413" data-name="Group 5413" transform="translate(0 0)">
        <g id="Group_5412" data-name="Group 5412">
          <g id="Group_5411" data-name="Group 5411">
            <g id="Group_5410" data-name="Group 5410">
              <g id="Group_5409" data-name="Group 5409">
                <g id="Group_5408" data-name="Group 5408">
                  <g id="Group_5407" data-name="Group 5407">
                    <g id="Group_5406" data-name="Group 5406">
                      <path id="Path_14398" data-name="Path 14398" d="M1199.13,1303.954c.081-.024,5.769-1.17,10.3-.059l.346-1.05a17.459,17.459,0,0,0-6.12-.751,18.492,18.492,0,0,0-4.61.65Z" transform="translate(-1199.046 -1302.067)" fill="#160707"/>
                    </g>
                  </g>
                </g>
              </g>
            </g>
          </g>
        </g>
      </g>
    </g>
    <g id="Group_5459" data-name="Group 5459" transform="translate(-1080.074 970.649)">
      <g id="Group_5418" data-name="Group 5418" transform="translate(0 0.326)">
        <g id="Group_5417" data-name="Group 5417" transform="translate(0 0)">
          <g id="Group_5416" data-name="Group 5416">
            <g id="Group_5415" data-name="Group 5415">
              <path id="Path_14399" data-name="Path 14399" d="M938.568,1365.206a16.418,16.418,0,0,0-.245-2.078c-.3-1.451-1.7-5.08-1.85-6.2a10.6,10.6,0,0,1,.064-3.064c.01-.065.019-.132.03-.2v-.007l.02-.127a16.776,16.776,0,0,0-.068-4.71c-.28-1.486-.863-1.94-1.121-2.071a.573.573,0,0,0-.128-.05,9.019,9.019,0,0,0,1.22-1.685,2.162,2.162,0,0,0-.164-2.476c-.245-.219-.514-.4-.788-.217l-3.307,2.473-.121.09-3.523,2.631a1.99,1.99,0,0,1-.042-.673c.058-.222,2.579-3.946,2.579-3.946l.3-.288.044-.041.194-.185c1.031-.978,3.207-3.056,3.582-3.567a3.005,3.005,0,0,0,.765-2.158,2.792,2.792,0,0,0-.429-1.1.521.521,0,0,0-.791-.162l-4.343,3.516-.352.286-.1.082.059-.128c.06-.131.164-.358.3-.641.4-.856,1.054-2.224,1.5-3.028a5.75,5.75,0,0,0,.88-3.787c-.051-.175-.1-.327-.15-.464a2.5,2.5,0,0,0-.633-.989.521.521,0,0,0-.811.092l-.14.224c-.418.668-1.05,1.685-1.612,2.62-.5.829-.943,1.595-1.136,2-.242.506-.7,1.324-1.165,2.125-.118.2-.237.408-.353.6-.475.813-.894,1.515-1.01,1.724-.251.458-3.864,5.4-4.1,6.023s-.033,2.333-.286,5.712a34.477,34.477,0,0,1-.459,4c-.047.6-1.222,3.429-1.364,4.689a32.438,32.438,0,0,0,.489,8.4,14.8,14.8,0,0,1,.108,3.9c-.233,2.785-.929,5.5-1.02,6.389-.137,1.314-5.434,11.637-5.434,11.637l15.6,6.683s3.819-11.792,6.348-16.22,2.961-6.828,3.036-7.946c0-.034.005-.073.007-.119h0c.013-.244.026-.634.035-1.121h0c.006-.308.01-.652.013-1.026h0v-.762C938.7,1368.393,938.666,1366.639,938.568,1365.206Zm-7.316-15.418a8.18,8.18,0,0,0-.02,3.387c.139,1.178.474,2.53.57,4.009s.078,4.131.078,4.131-1.554-.925-1.843-1.9a18.592,18.592,0,0,1-.655-4.048c-.03-.5-.125-2.833-.125-2.833Z" transform="translate(-913.661 -1330.079)" fill="#d8a77e"/>
            </g>
          </g>
        </g>
      </g>
      <g id="Group_5423" data-name="Group 5423" transform="translate(7.506 17.315)">
        <g id="Group_5422" data-name="Group 5422" transform="translate(0 0)">
          <g id="Group_5421" data-name="Group 5421">
            <g id="Group_5420" data-name="Group 5420">
              <g id="Group_5419" data-name="Group 5419">
                <path id="Path_14400" data-name="Path 14400" d="M1003.891,1549.566l.036-.1a17.7,17.7,0,0,0,.87-3.682,23.589,23.589,0,0,1,.884-3.975v-.01c.1-.366.182-.654.228-.841a10.549,10.549,0,0,0,.185-1.295,11.072,11.072,0,0,1,.295-1.833c.228-.782,3.243-3.431,4.385-4.386l.085-.071-.263-.315-.085.071c-.431.361-4.215,3.551-4.516,4.586a11.355,11.355,0,0,0-.308,1.9,10.3,10.3,0,0,1-.175,1.243c-.044.18-.124.466-.226.829v.009a23.248,23.248,0,0,0-.9,4.072,17.884,17.884,0,0,1-.849,3.563l-.036.1Z" transform="translate(-1003.499 -1533.058)" fill="#a1542e"/>
              </g>
            </g>
          </g>
        </g>
      </g>
      <g id="Group_5428" data-name="Group 5428" transform="translate(7.877 9.279)">
        <g id="Group_5427" data-name="Group 5427" transform="translate(0 0)">
          <g id="Group_5426" data-name="Group 5426">
            <g id="Group_5425" data-name="Group 5425">
              <g id="Group_5424" data-name="Group 5424">
                <path id="Path_14401" data-name="Path 14401" d="M1008.321,1447.072l.011-.111a11.169,11.169,0,0,1,.341-1.894,6.878,6.878,0,0,1,1.371-1.453,16.946,16.946,0,0,0,1.224-1.187c.764-.867,5.2-5.011,5.246-5.055l.079-.074-.274-.3-.082.077c-.46.429-4.51,4.218-5.274,5.084a16.5,16.5,0,0,1-1.192,1.155,6.368,6.368,0,0,0-1.48,1.614,11.234,11.234,0,0,0-.365,2l-.011.109Z" transform="translate(-1007.915 -1436.996)" fill="#a1542e"/>
              </g>
            </g>
          </g>
        </g>
      </g>
      <g id="Group_5433" data-name="Group 5433" transform="translate(13.649 22.865)">
        <g id="Group_5432" data-name="Group 5432" transform="translate(0 0)">
          <g id="Group_5431" data-name="Group 5431">
            <g id="Group_5430" data-name="Group 5430">
              <g id="Group_5429" data-name="Group 5429">
                <path id="Path_14402" data-name="Path 14402" d="M1081.039,1619.2l.4-.063-.017-.109a6.5,6.5,0,0,0-.385-1.3,5.945,5.945,0,0,0-1.644-2.344,5.476,5.476,0,0,1-2-4.031,66.318,66.318,0,0,1,.129-8.4,12.784,12.784,0,0,1,1.1-3.193l.05-.1-.366-.186-.05.1a13.291,13.291,0,0,0-1.142,3.318,66.921,66.921,0,0,0-.132,8.482c.006.1.014.193.023.285h0a6.076,6.076,0,0,0,.714,2.349,5.941,5.941,0,0,0,1.417,1.686,6.192,6.192,0,0,1,1.884,3.394Z" transform="translate(-1076.905 -1599.477)" fill="#a1542e"/>
              </g>
            </g>
          </g>
        </g>
      </g>
      <g id="Group_5453" data-name="Group 5453" transform="translate(13.425 0)">
        <g id="Group_5452" data-name="Group 5452" transform="translate(0)">
          <g id="Group_5451" data-name="Group 5451">
            <g id="Group_5450" data-name="Group 5450">
              <g id="Group_5449" data-name="Group 5449">
                <g id="Group_5448" data-name="Group 5448">
                  <g id="Group_5447" data-name="Group 5447">
                    <g id="Group_5446" data-name="Group 5446">
                      <g id="Group_5445" data-name="Group 5445">
                        <g id="Group_5444" data-name="Group 5444">
                          <g id="Group_5443" data-name="Group 5443">
                            <g id="Group_5442" data-name="Group 5442">
                              <g id="Group_5441" data-name="Group 5441">
                                <g id="Group_5440" data-name="Group 5440">
                                  <g id="Group_5439" data-name="Group 5439">
                                    <g id="Group_5438" data-name="Group 5438">
                                      <g id="Group_5437" data-name="Group 5437">
                                        <g id="Group_5436" data-name="Group 5436">
                                          <g id="Group_5435" data-name="Group 5435">
                                            <g id="Group_5434" data-name="Group 5434">
                                              <path id="Path_14403" data-name="Path 14403" d="M1083.49,1338.647c-.163-.147-.6-.536-1.055-.236l-.011.008-3.243,2.422-.11.082.048.151.063.194.016.05.126-.083.533-.348h.007l2.82-2.1a.189.189,0,0,1,.107-.034c.083,0,.2.052.4.234a1.949,1.949,0,0,1,.113,2.213,8.845,8.845,0,0,1-1.184,1.634l-1.4,1.884-.208.281s.069.163.132.288a.525.525,0,0,0,.087.14l.194-.255.072-.094,1.469-1.934.175-.231h0c.062-.072.135-.159.215-.259a7.334,7.334,0,0,0,.843-1.256A2.357,2.357,0,0,0,1083.49,1338.647Zm-.244-5.738a2.5,2.5,0,0,0-.361-1.011q-.047-.084-.093-.174a.743.743,0,0,0-1.126-.232l-4.057,3.285.259-.543c.51-1.07.912-1.869,1.194-2.375a5.956,5.956,0,0,0,.9-3.957c-.058-.2-.114-.374-.177-.534a2.741,2.741,0,0,0-.664-1.013.743.743,0,0,0-1.153.13h0l-.051.086c-.2.344-.814,1.466-1.493,2.706-.956,1.745-2.039,3.722-2.266,4.09v.76s1.226-2.182,2.352-4.179c.668-1.186,1.3-2.3,1.622-2.868.109-.191.183-.318.209-.36a.3.3,0,0,1,.223-.138h.033a.3.3,0,0,1,.212.087,2.536,2.536,0,0,1,.691,1.236h0l.037.123a5.453,5.453,0,0,1-.861,3.617c-.114.2-.244.45-.393.742h0c-.089.176-.184.365-.287.57l-.216.442c0-.024-.36.717-.36.717.007.05.015-.047.023,0h0s-.053.1-.137.244h0c-.257.449-.8,1.382-.974,1.69-.034.061-.054.1-.054.1a1.774,1.774,0,0,0,0,.336l.979-.821.3-.25.964-.809h0l3.427-2.775a.3.3,0,0,1,.453.093c.033.063.065.122.1.18a2.085,2.085,0,0,1,.31.842,2.78,2.78,0,0,1-.723,2c-.243.327-1.268,1.339-2.22,2.261l-.007.008c-.4.383-.781.75-1.09,1.043a.035.035,0,0,0-.006-.024l-.339.316-.029.028c.008.028.014.057.023.084s.013.048.019.073l.065.245.03.114.049-.046.22-.21.058-.056c1.2-1.142,3.207-3.065,3.581-3.572a3.233,3.233,0,0,0,.8-2.309Z" transform="translate(-1074.159 -1326.136)" fill="#a1542e"/>
                                            </g>
                                          </g>
                                        </g>
                                      </g>
                                    </g>
                                  </g>
                                </g>
                              </g>
                            </g>
                          </g>
                        </g>
                      </g>
                    </g>
                  </g>
                </g>
              </g>
            </g>
          </g>
        </g>
      </g>
      <g id="Group_5458" data-name="Group 5458" transform="translate(19.899 18.77)">
        <g id="Group_5457" data-name="Group 5457" transform="translate(0 0)">
          <g id="Group_5456" data-name="Group 5456">
            <g id="Group_5455" data-name="Group 5455">
              <g id="Group_5454" data-name="Group 5454">
                <path id="Path_14404" data-name="Path 14404" d="M1154.637,1555.631s-2.16-3.9-2.688-5.076c-.075-.168-.409.094-.292.348.615,1.328,2.864,5.346,2.864,5.346Z" transform="translate(-1151.632 -1550.502)" fill="#a1542e"/>
              </g>
            </g>
          </g>
        </g>
      </g>
    </g>
    <g id="Group_5501" data-name="Group 5501" transform="translate(-977.836 965.747)">
      <g id="Group_5484" data-name="Group 5484" transform="translate(0.016 16.845)">
        <g id="Group_5463" data-name="Group 5463" transform="translate(0 0)">
          <g id="Group_5462" data-name="Group 5462">
            <g id="Group_5461" data-name="Group 5461">
              <g id="Group_5460" data-name="Group 5460">
                <path id="Path_14405" data-name="Path 14405" d="M2170.993,1480.214c0-.515-.138-3.7-.068-5.067v-.067h0v-.033a.708.708,0,0,1,.006-.111v-.007c.046-1.138-.132-4.235-.212-5.567a.556.556,0,0,0-.731-.461,3.343,3.343,0,0,0-1.529.935,5.117,5.117,0,0,0-1.151,3.26v.019c-.011.176-.016.352-.015.524,0,.434-.019,1-.049,1.576l-.007.137c0,.053,0,.106-.009.159v.087c-.046.822-.1,1.612-.136,2.021,0,.056-.008.1-.011.145-.008.092-.012.143-.012.143l-.054-.12-.054-.122-2.446-5.475a.59.59,0,0,0-.848-.224,3.137,3.137,0,0,0-1,.789,2.346,2.346,0,0,0-.467,1.274h0a4.63,4.63,0,0,0,.056,1.013c.123.837,1.8,5.58,1.8,5.58s.375,3.8.388,4.6a.659.659,0,0,1,0,.135,1.078,1.078,0,0,1-.167.3l-.074.1c-.084.1-.156.181-.156.181l-3.938-7.9c-.167-.289-.522-.256-.873-.174a1.63,1.63,0,0,0-.7.4h0a2.508,2.508,0,0,0-.773,1.737,8.319,8.319,0,0,0,.279,2.078s-.948-.253-2.332,1.316a17.138,17.138,0,0,0-2.569,4.183c-.016.042-.032.083-.048.123h0a11.022,11.022,0,0,1-1.647,2.971c-.734.939-4.019,3.535-5.084,4.692-1.656,1.8-4.985,7.568-5.506,8.606-.085.169-.179.375-.279.62-.5,1.26-1.09,3.608-1.025,7.917.011.72-.03,1.6-.109,2.569-.448,5.5-2.1,14.131-2.371,15.489h0a.329.329,0,0,0-.007.037c-.018.094-.028.143-.028.143l17.325.219v-.142c.015-.444.067-1.874.149-3.63a.04.04,0,0,0,0-.011c0-.066.006-.132.009-.2.012-.245.023-.5.036-.751,0-.059.006-.119.009-.179,0-.082.008-.165.012-.248s.01-.186.014-.278.011-.2.016-.294.009-.174.014-.263a.1.1,0,0,1,0-.017c0-.1.01-.192.016-.289s.011-.193.016-.29l.025-.435c0-.091.011-.181.017-.272s.012-.2.019-.3a30.086,30.086,0,0,1,.6-5.355,47.812,47.812,0,0,1,5.858-9.32,33.46,33.46,0,0,0,4.942-7.3c.533-1.195.9-4.275,1.181-4.837a34.026,34.026,0,0,1,1.687-3.8c1.558-3.148,2.664-4.588,2.768-5.252a1.033,1.033,0,0,0,.008-.155h0C2171.745,1486.208,2170.983,1480.716,2170.993,1480.214Zm-15.2,12.888c.881-1.281,1.923-2.335,2.684-3.325,1.65-2.147,1.781-3.018,1.784-3.042l.459,3.392s-1.332,2.043-1.629,2.479a19.809,19.809,0,0,1-2.786,3.32,5.664,5.664,0,0,1-2.786.84s1.391-2.381,2.273-3.664Z" transform="translate(-2137.035 -1468.872)" fill="#d8a77d"/>
              </g>
            </g>
          </g>
        </g>
        <g id="Group_5468" data-name="Group 5468" transform="translate(25.221 16.81)">
          <g id="Group_5467" data-name="Group 5467" transform="translate(0 0)">
            <g id="Group_5466" data-name="Group 5466">
              <g id="Group_5465" data-name="Group 5465">
                <g id="Group_5464" data-name="Group 5464">
                  <path id="Path_14406" data-name="Path 14406" d="M2438.7,1687.758l.021-.11a16.977,16.977,0,0,1,1.121-3.708,22.83,22.83,0,0,0,1.264-3.972v-.011c.1-.375.173-.672.227-.859a10.384,10.384,0,0,1,.511-1.247,10.863,10.863,0,0,0,.692-1.779c.2-.8-1.3-4.586-1.891-5.975l-.044-.1.421-.158.044.1c.224.524,2.171,5.147,1.91,6.213a11.047,11.047,0,0,1-.716,1.848,10.147,10.147,0,0,0-.491,1.195c-.053.182-.129.475-.225.847v.009a22.428,22.428,0,0,1-1.3,4.066,17.253,17.253,0,0,0-1.078,3.586l-.021.11Z" transform="translate(-2438.7 -1669.84)" fill="#d8a77d"/>
                </g>
              </g>
            </g>
          </g>
        </g>
        <g id="Group_5473" data-name="Group 5473" transform="translate(29.783 8.848)">
          <g id="Group_5472" data-name="Group 5472" transform="translate(0 0)">
            <g id="Group_5471" data-name="Group 5471">
              <g id="Group_5470" data-name="Group 5470">
                <g id="Group_5469" data-name="Group 5469">
                  <path id="Path_14407" data-name="Path 14407" d="M2495.976,1587.218l.049-.1a10.972,10.972,0,0,0,.678-1.855,6.357,6.357,0,0,0-.547-1.941,15.614,15.614,0,0,1-.547-1.635c-.273-1.133-2.343-6.915-2.364-6.976l-.037-.1.425-.146.038.107c.215.6,2.1,5.882,2.376,7.015a15.257,15.257,0,0,0,.533,1.591,5.917,5.917,0,0,1,.566,2.136,10.925,10.925,0,0,1-.711,1.958l-.048.1Z" transform="translate(-2493.208 -1574.465)" fill="#d8a77d"/>
                </g>
              </g>
            </g>
          </g>
        </g>
        <g id="Group_5478" data-name="Group 5478" transform="translate(10.675 21.581)">
          <g id="Group_5477" data-name="Group 5477" transform="translate(0 0)">
            <g id="Group_5476" data-name="Group 5476">
              <g id="Group_5475" data-name="Group 5475">
                <g id="Group_5474" data-name="Group 5474">
                  <path id="Path_14408" data-name="Path 14408" d="M2265.211,1743.216l-.357-.246.074-.09a7.114,7.114,0,0,1,1.063-.987,6.965,6.965,0,0,1,2.831-1.333,6.237,6.237,0,0,0,4.079-2.674,67.3,67.3,0,0,0,4.343-7.58,12.075,12.075,0,0,0,.637-3.373v-.111h.451v.112a12.543,12.543,0,0,1-.666,3.507,67.894,67.894,0,0,1-4.385,7.658c-.057.083-.115.165-.175.245h0a6.687,6.687,0,0,1-1.937,1.771,7.051,7.051,0,0,1-2.264.849,7.071,7.071,0,0,0-3.621,2.161Z" transform="translate(-2264.854 -1726.821)" fill="#d8a77d"/>
                </g>
              </g>
            </g>
          </g>
        </g>
        <g id="Group_5483" data-name="Group 5483" transform="translate(15.826 15.531)">
          <g id="Group_5482" data-name="Group 5482" transform="translate(0 0)">
            <g id="Group_5481" data-name="Group 5481">
              <g id="Group_5480" data-name="Group 5480">
                <g id="Group_5479" data-name="Group 5479">
                  <path id="Path_14409" data-name="Path 14409" d="M2326.591,1657.8s4.156-2.484,5.291-3.293c.162-.115.344.276.1.447-1.3.9-5.605,3.452-5.605,3.452Z" transform="translate(-2326.376 -1654.483)" fill="#d8a77d"/>
                </g>
              </g>
            </g>
          </g>
        </g>
      </g>
      <path id="Path_14410" data-name="Path 14410" d="M2170.432,1320.775l-12.385-.582c-1.882-.391-2.937-2.265-2.391-3.457l21.455-45.609c.546-1.191,1.574-2.619,4.68-2.748l12.482-.924c3.556-.16,3.128,2.257,2.582,3.448l-21.767,47.5C2174.541,1319.592,2173.3,1321,2170.432,1320.775Z" transform="translate(-2153.972 -1267.448)" fill="#d9d9d9"/>
      <path id="Path_14411" data-name="Path 14411" d="M2171.073,1478.5c0-.528-.146-3.862-.062-5.169.065-1.022-.122-4.309-.207-5.686a.556.556,0,0,0-.731-.461,3.344,3.344,0,0,0-1.528.936,5.581,5.581,0,0,0-1.169,3.8c0,1.426-.229,4.267-.229,4.267l-2.554-5.712a.589.589,0,0,0-.848-.223,3.124,3.124,0,0,0-1,.788,2.857,2.857,0,0,0-.412,2.29c.124.837,1.8,5.58,1.8,5.58s.446,4.51.384,4.737a2.073,2.073,0,0,1-.4.583l-3.937-7.9c-.168-.289-.522-.255-.874-.173-.574.133-.985.7-1.051,1.958a5.243,5.243,0,0,0,.053.932s2.026,5.981,2.027,5.97l.667,3.4a9.851,9.851,0,0,1-.185,2.443,47.818,47.818,0,0,1-3.381,7.25c-1.01,1.6-2.394,3.267-3.708,3.8s-3.732.919-4.8,1.9c-.477.443-5.5,6.537-5.421,11.683s-6.414,13.554-6.414,13.554l17.324.22s.391-11.717.958-12.958a47.816,47.816,0,0,1,5.857-9.32,33.5,33.5,0,0,0,4.942-7.3c.533-1.2.9-4.276,1.181-4.837a34.106,34.106,0,0,1,1.687-3.8c1.558-3.148,2.664-4.588,2.768-5.252S2171.073,1479.036,2171.073,1478.5Z" transform="translate(-2137.102 -1450.458)" fill="#d8a77d"/>
      <g id="Group_5500" data-name="Group 5500" transform="translate(10.701 25.541)">
        <g id="Group_5489" data-name="Group 5489" transform="translate(14.536 7.973)">
          <g id="Group_5488" data-name="Group 5488" transform="translate(0 0)">
            <g id="Group_5487" data-name="Group 5487">
              <g id="Group_5486" data-name="Group 5486">
                <g id="Group_5485" data-name="Group 5485">
                  <path id="Path_14412" data-name="Path 14412" d="M2438.781,1686.049l.021-.11a16.964,16.964,0,0,1,1.121-3.708,22.753,22.753,0,0,0,1.262-3.972v-.011c.1-.375.172-.671.228-.859a10.466,10.466,0,0,1,.511-1.247,10.8,10.8,0,0,0,.692-1.779c.2-.8-1.3-4.586-1.891-5.975l-.044-.1.421-.158.044.1c.222.524,2.171,5.147,1.91,6.213a11.129,11.129,0,0,1-.716,1.848,10.136,10.136,0,0,0-.492,1.2c-.052.181-.128.475-.224.847v.009a22.474,22.474,0,0,1-1.3,4.066,17.192,17.192,0,0,0-1.078,3.587l-.021.11Z" transform="translate(-2438.781 -1668.13)" fill="#a1542e"/>
                </g>
              </g>
            </g>
          </g>
        </g>
        <g id="Group_5494" data-name="Group 5494" transform="translate(19.099 0)">
          <g id="Group_5493" data-name="Group 5493" transform="translate(0)">
            <g id="Group_5492" data-name="Group 5492">
              <g id="Group_5491" data-name="Group 5491">
                <g id="Group_5490" data-name="Group 5490">
                  <path id="Path_14413" data-name="Path 14413" d="M2496.056,1585.5l.049-.1a10.838,10.838,0,0,0,.678-1.856,6.358,6.358,0,0,0-.547-1.941,15.72,15.72,0,0,1-.546-1.635c-.274-1.132-2.344-6.915-2.365-6.976l-.037-.1.425-.145.038.107c.215.6,2.1,5.883,2.376,7.015a15.444,15.444,0,0,0,.533,1.59,5.927,5.927,0,0,1,.566,2.137,10.962,10.962,0,0,1-.71,1.958l-.048.1Z" transform="translate(-2493.29 -1572.743)" fill="#a1542e"/>
                </g>
              </g>
            </g>
          </g>
        </g>
        <g id="Group_5499" data-name="Group 5499" transform="translate(0 12.744)">
          <g id="Group_5498" data-name="Group 5498" transform="translate(0 0)">
            <g id="Group_5497" data-name="Group 5497">
              <g id="Group_5496" data-name="Group 5496">
                <g id="Group_5495" data-name="Group 5495">
                  <path id="Path_14414" data-name="Path 14414" d="M2265.3,1741.505l-.357-.246.074-.09a7.1,7.1,0,0,1,1.063-.987,6.96,6.96,0,0,1,2.831-1.333,6.233,6.233,0,0,0,4.079-2.674,67.216,67.216,0,0,0,4.343-7.58,12.092,12.092,0,0,0,.637-3.373v-.112h.451v.112a12.554,12.554,0,0,1-.666,3.508,67.84,67.84,0,0,1-4.385,7.658c-.057.083-.115.165-.175.245h0a6.668,6.668,0,0,1-1.938,1.771,7.049,7.049,0,0,1-2.262.85,7.066,7.066,0,0,0-3.622,2.161Z" transform="translate(-2264.944 -1725.11)" fill="#a1542e"/>
                </g>
              </g>
            </g>
          </g>
        </g>
      </g>
    </g>
    <g id="Group_5506" data-name="Group 5506" transform="translate(-985.881 1044.788)">
      <g id="Group_5505" data-name="Group 5505" transform="translate(0 0)">
        <g id="Group_5504" data-name="Group 5504">
          <g id="Group_5503" data-name="Group 5503">
            <g id="Group_5502" data-name="Group 5502">
              <path id="Path_14415" data-name="Path 14415" d="M2040.47,2275.107l.823.084,4.474-59.146-.823-.084Z" transform="translate(-2040.47 -2215.961)" fill="#fff"/>
            </g>
          </g>
        </g>
      </g>
    </g>
  </g>
</svg>
